<?xml version="1.0" encoding="utf-8"?>
<svg xmlns="http://www.w3.org/2000/svg" viewBox="0 0 66.034 63.799">
  <rect width="66.369" height="64.804" fill="#18181B" rx="8" x="-0.336" y="-1.005"/>
  <path d="M 40.472 31.21 C 39.968 27.212 36.645 23.955 32.179 23.955 C 27.646 23.955 23.824 27.559 23.824 31.845 C 23.824 36.13 27.646 39.73 32.179 39.73 C 36.646 39.73 39.967 36.471 40.472 32.476 C 40.525 32.269 40.546 32.057 40.534 31.843 C 40.545 31.63 40.525 31.417 40.472 31.21 Z M 28.29 31.841 C 28.29 27.089 35.831 27.132 36.068 31.841 C 35.831 36.545 28.29 36.599 28.29 31.841 Z" fill="#30bd1a"/>
  <path d="M 54.507 29.733 L 49.684 29.733 C 48.769 23.57 44.449 18.297 38.107 16.112 C 36.915 15.705 35.677 15.426 34.418 15.28 L 34.418 10.761 C 34.418 8.047 29.952 8.042 29.952 10.761 L 29.952 15.31 C 25.556 15.863 21.388 17.952 18.531 21.267 C 16.444 23.698 15.116 26.632 14.698 29.738 L 9.851 29.738 C 6.977 29.738 6.971 33.955 9.851 33.955 L 14.674 33.955 C 14.961 36.246 15.761 38.454 17.018 40.432 C 19.86 44.886 24.684 47.702 29.95 48.356 L 29.95 52.927 C 29.95 55.641 34.416 55.646 34.416 52.927 L 34.416 48.38 C 34.783 48.339 35.153 48.291 35.519 48.228 C 43.107 46.944 48.616 40.93 49.68 33.95 L 54.507 33.95 C 57.381 33.95 57.387 29.733 54.507 29.733 Z M 36.635 43.595 C 31.423 45.318 25.628 43.834 22.051 39.862 C 14.243 31.121 22.704 17.392 34.625 19.572 C 40.89 20.717 45.267 25.874 45.392 31.841 C 45.283 37.058 41.916 41.83 36.635 43.595 Z" fill="#30bd1a"/>
</svg>
