<?xml version="1.0" encoding="utf-8"?>
<svg xmlns="http://www.w3.org/2000/svg" viewBox="0 0 118.324 117.095" width="600" height="160" xmlns:bx="https://boxy-svg.com">
  <rect width="118.324" height="118.436" fill="#18181B" rx="8" x="-0.001" y="-1.005" style=""/>
  <text style="white-space: pre; fill: rgb(51, 51, 51); font-family: Arial, sans-serif; font-size: 28px; stroke-width: 1;" x="364.358" y="195.084"> </text>
  <defs>
    <style bx:fonts="Chewy">@import url(https://fonts.googleapis.com/css2?family=Chewy%3Aital%2Cwght%400%2C400&amp;display=swap);</style>
  </defs>
  <g transform="matrix(1, 0, 0, 1, -415.307281, -18.435755)">
    <text style="fill: rgb(227, 203, 13); font-family: Chewy; font-size: 90px; letter-spacing: -4px; white-space: pre;" x="430.515" y="107.598">BV</text>
    <path d="M 480.918 74.785 C 480.414 70.787 477.091 67.53 472.625 67.53 C 468.092 67.53 464.27 71.134 464.27 75.42 C 464.27 79.705 468.092 83.305 472.625 83.305 C 477.092 83.305 480.413 80.046 480.918 76.051 C 480.971 75.844 480.992 75.632 480.98 75.418 C 480.991 75.205 480.971 74.992 480.918 74.785 Z M 468.736 75.416 C 468.736 70.664 476.277 70.707 476.514 75.416 C 476.277 80.12 468.736 80.174 468.736 75.416 Z" style="stroke-width: 1; fill: rgb(255, 255, 255);"/>
    <path d="M 494.953 73.308 L 490.13 73.308 C 489.215 67.145 484.895 61.872 478.553 59.687 C 477.361 59.28 476.123 59.001 474.864 58.855 L 474.864 54.336 C 474.864 51.622 470.398 51.617 470.398 54.336 L 470.398 58.885 C 466.002 59.438 461.834 61.527 458.977 64.842 C 456.89 67.273 455.562 70.207 455.144 73.313 L 450.297 73.313 C 447.423 73.313 447.417 77.53 450.297 77.53 L 455.12 77.53 C 455.407 79.821 456.207 82.029 457.464 84.007 C 460.306 88.461 465.13 91.277 470.396 91.931 L 470.396 96.502 C 470.396 99.216 474.862 99.221 474.862 96.502 L 474.862 91.955 C 475.229 91.914 475.599 91.866 475.965 91.803 C 483.553 90.519 489.062 84.505 490.126 77.525 L 494.953 77.525 C 497.827 77.525 497.833 73.308 494.953 73.308 Z M 477.081 87.17 C 471.869 88.893 466.074 87.409 462.497 83.437 C 454.689 74.696 463.15 60.967 475.071 63.147 C 481.336 64.292 485.713 69.449 485.838 75.416 C 485.729 80.633 482.362 85.405 477.081 87.17 Z" style="stroke-width: 1; fill: rgb(255, 255, 255);"/>
  </g>
</svg>