<?xml version="1.0" encoding="utf-8"?>
<svg xmlns="http://www.w3.org/2000/svg" viewBox="-5.363 0 356.312 114.749" width="600" height="160" xmlns:bx="https://boxy-svg.com">
  <rect width="356.648" height="116.425" fill="#18181B" rx="8" y="-1.006" x="-5.363" style=""/>
  <g transform="matrix(1, 0, 0, 1, -21.117319, -12.737431)">
    <g transform="matrix(1, 0, 0, 1, -20.111731, 101.28492)">
      <text style="fill: rgb(227, 203, 13); font-family: Chewy; font-size: 90px; letter-spacing: -4px; white-space: pre;" x="44.581" y="2.011">BV</text>
      <text style="fill: rgb(255, 255, 255); font-family: system-ui, -apple-system, sans-serif; font-size: 60px; font-weight: 700; letter-spacing: -5px; white-space: pre;" x="125" y="0">b   w sight</text>
    </g>
    <path d="M 166.17 85.176 C 165.666 81.178 162.343 77.921 157.877 77.921 C 153.344 77.921 149.522 81.525 149.522 85.811 C 149.522 90.096 153.344 93.696 157.877 93.696 C 162.344 93.696 165.665 90.437 166.17 86.442 C 166.223 86.235 166.244 86.023 166.232 85.809 C 166.243 85.596 166.223 85.383 166.17 85.176 Z M 153.988 85.807 C 153.988 81.055 161.529 81.098 161.766 85.807 C 161.529 90.511 153.988 90.565 153.988 85.807 Z" style="stroke-width: 1; fill: rgb(227, 203, 13);"/>
    <path d="M 180.205 83.699 L 175.382 83.699 C 174.467 77.536 170.147 72.263 163.805 70.078 C 162.613 69.671 161.375 69.392 160.116 69.246 L 160.116 64.727 C 160.116 62.013 155.65 62.008 155.65 64.727 L 155.65 69.276 C 151.254 69.829 147.086 71.918 144.229 75.233 C 142.142 77.664 140.814 80.598 140.396 83.704 L 135.549 83.704 C 132.675 83.704 132.669 87.921 135.549 87.921 L 140.372 87.921 C 140.659 90.212 141.459 92.42 142.716 94.398 C 145.558 98.852 150.382 101.668 155.648 102.322 L 155.648 106.893 C 155.648 109.607 160.114 109.612 160.114 106.893 L 160.114 102.346 C 160.481 102.305 160.851 102.257 161.217 102.194 C 168.805 100.91 174.314 94.896 175.378 87.916 L 180.205 87.916 C 183.079 87.916 183.085 83.699 180.205 83.699 Z M 162.333 97.561 C 157.121 99.284 151.326 97.8 147.749 93.828 C 139.941 85.087 148.402 71.358 160.323 73.538 C 166.588 74.683 170.965 79.84 171.09 85.807 C 170.981 91.024 167.614 95.796 162.333 97.561 Z" style="stroke-width: 1; fill: rgb(227, 203, 13);"/>
  </g>
  <text style="white-space: pre; fill: rgb(51, 51, 51); font-family: Arial, sans-serif; font-size: 28px; stroke-width: 1;" x="364.358" y="195.084"> </text>
  <defs>
    <style bx:fonts="Chewy">@import url(https://fonts.googleapis.com/css2?family=Chewy%3Aital%2Cwght%400%2C400&amp;display=swap);</style>
  </defs>
</svg>